<svg width="31" height="25" viewBox="0 0 31 25" fill="none" xmlns="http://www.w3.org/2000/svg">
<path id="Email logo" fill-rule="evenodd" clip-rule="evenodd" d="M27.1126 0.603516H4.01512C2.95246 0.603516 2.04521 0.992235 1.29334 1.76969C0.54146 2.54714 0.165527 3.48525 0.165527 4.58405V20.5062C0.165527 21.605 0.54146 22.5431 1.29334 23.3206C2.04521 24.098 2.95246 24.4867 4.01512 24.4867H27.1126C28.1753 24.4867 29.0826 24.098 29.8344 23.3206C30.5863 22.5431 30.9622 21.605 30.9622 20.5062V4.58405C30.9622 3.48525 30.5863 2.54714 29.8344 1.76969C29.0826 0.992235 28.1753 0.603516 27.1126 0.603516ZM28.0751 2.59377L15.5639 12.5451L3.05276 2.59377H28.0751ZM2.09036 20.5062V4.58404L10.7519 11.55L2.18058 21.066C2.16053 20.983 2.14048 20.8949 2.12043 20.8016C2.10038 20.7083 2.09036 20.6099 2.09036 20.5062ZM3.59411 22.4343L12.2858 12.8872L15.5639 15.4372L18.7218 12.8561L27.5337 22.4343C27.4936 22.455 26.2305 22.4654 23.7443 22.4654C21.2581 22.4654 18.5313 22.4654 15.5639 22.4654C12.5965 22.4654 9.86975 22.4654 7.38354 22.4654C4.89734 22.4654 3.63421 22.455 3.59411 22.4343ZM29.0375 20.5062C29.0375 20.6099 29.0275 20.7083 29.0074 20.8016C28.9874 20.8949 28.9673 20.983 28.9473 21.066L20.3759 11.55L29.0375 4.58404V20.5062Z" fill="#00A9DC"/>
</svg>
