<svg width="21" height="28" viewBox="0 0 21 28" fill="none" xmlns="http://www.w3.org/2000/svg">
<path fill-rule="evenodd" clip-rule="evenodd" d="M20.5 11.75H5V7.5C5 6.02416 5.50525 4.78581 6.52053 3.77053C7.53581 2.75525 8.77416 2.25 10.25 2.25C11.7258 2.25 12.9642 2.75525 13.9795 3.77053C14.9948 4.78581 15.5 6.02416 15.5 7.5V8.25H17V7.5C17 5.64196 16.3382 4.04716 15.0205 2.72947C13.7028 1.41179 12.108 0.75 10.25 0.75C8.39196 0.75 6.79716 1.41179 5.47947 2.72947C4.16179 4.04716 3.5 5.64196 3.5 7.5V11.75H0V27.25H20.5V11.75ZM8 18C8 17.352 8.21253 16.8089 8.63572 16.3857C9.05892 15.9625 9.60205 15.75 10.25 15.75C10.898 15.75 11.4411 15.9625 11.8643 16.3857C12.2875 16.8089 12.5 17.352 12.5 18C12.5 19.0506 11.9875 19.7712 11 20.1196V22.25H9.5V20.1196C8.51245 19.7712 8 19.0506 8 18ZM10.25 18.75C9.7214 18.75 9.5 18.5286 9.5 18C9.5 17.4714 9.7214 17.25 10.25 17.25C10.7786 17.25 11 17.4714 11 18C11 18.5286 10.7786 18.75 10.25 18.75ZM19 13.25V25.75H1.5V13.25H19Z" fill="#E0ECF2"/>
</svg>
