<svg width="25" height="23" viewBox="0 0 25 23" fill="none" xmlns="http://www.w3.org/2000/svg">
<path d="M24.1969 22.5269C24.1616 22.3004 24.096 22.0352 23.9989 21.7335C23.8753 21.3499 23.7099 21.062 23.5081 20.8601C23.3126 20.6646 22.834 20.3955 22.0986 20.0932C21.2892 19.7603 20.371 19.4083 19.3442 19.0372C18.2811 18.6529 17.4922 18.3305 16.9796 18.0697C16.2225 17.7014 15.6327 17.1348 15.2253 16.3864C14.8335 15.6664 14.6346 14.913 14.6346 14.136C14.6346 13.462 14.9755 12.7802 15.5973 12.0799C15.8419 11.789 16.067 11.367 16.2638 10.813L16.3752 10.4993L16.6826 10.3715C17.1291 10.1859 17.3319 9.84642 17.3319 9.20344C17.3319 8.66462 17.2485 8.31945 17.1295 8.1676L16.9299 7.91303L16.9781 7.59319C17.0672 7.00196 17.1445 6.33057 17.208 5.60705C17.2151 5.46521 17.2151 5.31894 17.2071 5.14033C17.1996 4.42545 17.0917 3.79818 16.887 3.25578C16.6835 2.71666 16.4332 2.29722 16.1413 1.99209C15.8255 1.66191 15.4692 1.3844 15.0706 1.15815C14.6728 0.93237 14.2816 0.779087 13.8962 0.695744C13.4688 0.603338 13.0593 0.544017 12.6677 0.517401C12.2836 0.491299 11.9661 0.494928 11.7189 0.525826C11.4964 0.55363 11.3525 0.588218 11.3211 0.603875C11.1749 0.679503 11.0441 0.788509 10.9253 0.936948C10.7813 1.11698 10.694 1.24943 10.6679 1.3108C10.6326 1.39418 10.611 1.45525 10.603 1.48549C10.539 1.84235 10.2284 2.11128 9.85264 2.11128H9.69742L9.55495 2.04968C9.46652 2.01144 9.27364 2.03062 8.95977 2.16744C8.62978 2.31128 8.34731 2.58204 8.11346 2.99415C7.96289 3.27019 7.85846 3.62822 7.80658 4.07096C7.74991 4.55457 7.73141 4.88944 7.74592 5.04333C7.76609 5.25706 7.78407 5.42691 7.8023 5.57598C7.8845 6.47195 7.95821 7.14763 8.02267 7.59887L8.06793 7.9157L7.8705 8.1676C7.75149 8.31945 7.66807 8.66462 7.66807 9.20344C7.66807 9.84642 7.87086 10.1859 8.31737 10.3715L8.62475 10.4993L8.73619 10.813C8.933 11.367 9.15806 11.789 9.38965 12.0648C10.0245 12.7802 10.3654 13.462 10.3654 14.136C10.3654 14.913 10.1664 15.6664 9.77464 16.3864C9.36732 17.1348 8.77751 17.7014 8.03223 18.0638C7.50776 18.3305 6.71889 18.6529 5.65578 19.0372C4.62939 19.4081 3.71363 19.76 2.90882 20.0926C2.17713 20.395 1.70042 20.6641 1.50435 20.8601C1.30702 21.0575 1.13906 21.361 1.0104 21.78C0.914395 22.0926 0.847373 22.3447 0.809265 22.5269H24.1969Z" fill="#979797"/>
</svg>
